<svg xmlns="http://www.w3.org/2000/svg" viewBox="0 0 120 120"><title>logo</title><rect x="35.38" y="39.54" width="74" height="74" rx="12" fill="#333"/><path d="M73.71,75.63h4.88V94.34a18.79,18.79,0,0,1-.91,6.76A7.17,7.17,0,0,1,75,104.5a7.88,7.88,0,0,1-4.45,1.19,6.67,6.67,0,0,1-5.46-2.4q-2-2.4-2-7.24l4.62-.64a9,9,0,0,0,.66,3.69,2.76,2.76,0,0,0,4.64.41c.48-.72.73-2.31.73-4.79Z" fill="#fff"/><path d="M82.54,95.55,87.32,95q.81,5.66,5.28,5.66a4.94,4.94,0,0,0,3.49-1.16,3.72,3.72,0,0,0,1.27-2.87,3.2,3.2,0,0,0-.44-1.71,3.31,3.31,0,0,0-1.35-1.16,38.2,38.2,0,0,0-4.4-1.52,14.92,14.92,0,0,1-4.58-2.06,8,8,0,0,1-2.31-2.91,8.91,8.91,0,0,1-.85-3.88A8.58,8.58,0,0,1,84.53,79a7.17,7.17,0,0,1,3-2.92,10.44,10.44,0,0,1,4.78-1,8.4,8.4,0,0,1,9.22,8.95l-4.9.27A5.33,5.33,0,0,0,95.27,81a4.47,4.47,0,0,0-3-1,4.92,4.92,0,0,0-3,.83,2.49,2.49,0,0,0-1.06,2,2.56,2.56,0,0,0,1,2,13.68,13.68,0,0,0,4.46,1.81A18.17,18.17,0,0,1,98.87,89a7.75,7.75,0,0,1,2.51,3,10.86,10.86,0,0,1,.86,4.53,9.27,9.27,0,0,1-2.37,6.47q-2.37,2.63-7.41,2.62Q83.55,105.69,82.54,95.55Z" fill="#fff"/><ellipse cx="53.97" cy="50.88" rx="52.62" ry="3.21" transform="translate(-15.34 24.48) rotate(-22.46)" fill="#333"/><path d="M70.82,40.44,33.33,55.94S30.14,34.94,26,25.7c-5-11.13-14.54-22.41-14.19-21.94,0,0,18.8,2.1,28.15,7C52.6,17.46,70.82,40.44,70.82,40.44Z" fill="#333"/><path d="M70.82,40.44,33.33,55.94S30.14,34.94,26,25.7c-5-11.13-14.54-22.41-14.19-21.94,0,0,18.8,2.1,28.15,7C52.6,17.46,70.82,40.44,70.82,40.44Z" fill="#333"/><polygon points="22.76 5.82 24.83 8.23 27.77 7.02 26.1 9.73 28.16 12.15 25.07 11.4 23.41 14.11 23.16 10.94 20.07 10.2 23.01 8.98 22.76 5.82" fill="#fff"/><polyline points="24.97 23.54 24.44 20.49 26.5 22.91 29.44 21.69 27.78 24.4 29.84 26.82 26.12 26.34" fill="#fff"/><polyline points="39.88 10.69 42.18 12.19 39.7 12.64 39.42 15.81 37.79 13.08 34.69 13.79 36.78 11.4 35.14 8.67 38.07 9.91" fill="#fff"/><polygon points="43.89 18.66 45.96 21.08 48.9 19.87 47.23 22.58 49.3 25 46.2 24.25 44.54 26.96 44.29 23.79 41.2 23.05 44.14 21.84 43.89 18.66" fill="#fff"/><polygon points="32.4 29.65 35.28 31 37.45 28.68 37.06 31.84 39.93 33.19 36.81 33.79 36.41 36.94 34.88 34.16 31.76 34.76 33.93 32.44 32.4 29.65" fill="#fff"/><polyline points="62.95 31.19 63.06 34.37 61.1 31.87 58.11 32.96 59.89 30.32 57.93 27.82 60.98 28.69" fill="#fff"/><polyline points="56.48 46.19 53.39 45.45 56.33 44.23 56.08 41.06 58.14 43.48 61.08 42.27 59.42 44.98" fill="#fff"/><polyline points="31.48 45.59 30.89 42.47 33.2 44.65 35.99 43.13 34.63 46 36.94 48.19 33.79 47.78 32.42 50.65 31.84 47.52" fill="#fff"/><polygon points="45.96 34.27 48.02 36.69 50.96 35.48 49.3 38.19 51.36 40.61 48.27 39.86 46.6 42.57 46.36 39.4 43.27 38.66 46.2 37.45 45.96 34.27" fill="#fff"/><polyline points="41.23 52.58 38.16 51.75 41.13 50.61 40.97 47.44 42.97 49.91 45.93 48.77 44.2 51.44" fill="#fff"/></svg>